<svg width="20" height="20" viewBox="0 0 20 20" fill="none" xmlns="http://www.w3.org/2000/svg">
<path fill-rule="evenodd" clip-rule="evenodd" d="M15 2.5H3C2.72386 2.5 2.5 2.72386 2.5 3V17C2.5 17.2761 2.72386 17.5 3 17.5H15C15.2761 17.5 15.5 17.2761 15.5 17V14H17V17C17 18.1046 16.1046 19 15 19H3C1.89543 19 1 18.1046 1 17V3C1 1.89543 1.89543 1 3 1H15C16.1046 1 17 1.89543 17 3V6H15.5V3C15.5 2.72386 15.2761 2.5 15 2.5Z" fill="#161C1E"/>
<path d="M19 10H6M6 10L10 6M6 10L10 14" stroke="#161C1E" stroke-width="1.5"/>
</svg>
