<svg width="20" height="20" viewBox="0 0 20 20" fill="none" xmlns="http://www.w3.org/2000/svg">
<circle cx="7" cy="6" r="2.25" stroke="#161C1E" stroke-width="1.5"/>
<path fill-rule="evenodd" clip-rule="evenodd" d="M9.90549 6.75C9.96719 6.51029 10 6.25897 10 6C10 5.74103 9.96719 5.48971 9.90549 5.25H18C18.4142 5.25 18.75 5.58579 18.75 6C18.75 6.41421 18.4142 6.75 18 6.75H9.90549ZM4.09451 6.75H2C1.58579 6.75 1.25 6.41421 1.25 6C1.25 5.58579 1.58579 5.25 2 5.25H4.09451C4.03281 5.48971 4 5.74103 4 6C4 6.25897 4.03281 6.51029 4.09451 6.75Z" fill="#161C1E"/>
<circle r="2.25" transform="matrix(-1 0 0 1 13 14)" stroke="#161C1E" stroke-width="1.5"/>
<path fill-rule="evenodd" clip-rule="evenodd" d="M10.0945 14.75C10.0328 14.5103 10 14.259 10 14C10 13.741 10.0328 13.4897 10.0945 13.25H2C1.58579 13.25 1.25 13.5858 1.25 14C1.25 14.4142 1.58579 14.75 2 14.75H10.0945ZM15.9055 14.75H18C18.4142 14.75 18.75 14.4142 18.75 14C18.75 13.5858 18.4142 13.25 18 13.25H15.9055C15.9672 13.4897 16 13.741 16 14C16 14.259 15.9672 14.5103 15.9055 14.75Z" fill="#161C1E"/>
</svg>
