<svg width="20" height="20" viewBox="0 0 20 20" fill="none" xmlns="http://www.w3.org/2000/svg">
<path fill-rule="evenodd" clip-rule="evenodd" d="M16.3194 6.79732C16.3528 6.79064 16.3835 6.77424 16.4075 6.75017L17.8438 5.31386C17.8762 5.28153 17.8943 5.23768 17.8943 5.19196L17.8943 1.77883C17.8943 1.68363 17.8171 1.60645 17.7219 1.60645L14.3088 1.60646C14.2631 1.60646 14.2193 1.62462 14.1869 1.65695L7.72373 8.12015C7.68022 8.16366 7.61683 8.18045 7.55708 8.16572C5.85705 7.74661 3.98574 8.20127 2.65732 9.52969C0.637664 11.5493 0.637664 14.8239 2.65732 16.8435C4.67698 18.8632 7.95149 18.8632 9.97114 16.8435C11.2996 15.5151 11.7542 13.6437 11.3351 11.9437C11.3204 11.8839 11.3372 11.8205 11.3807 11.777L12.6768 10.4809C12.7009 10.4568 12.7173 10.4262 12.7239 10.3928L12.9959 9.03297C13.0096 8.96473 13.0629 8.91139 13.1311 8.89774L14.4295 8.63808C14.4977 8.62443 14.5511 8.57109 14.5647 8.50284L14.8244 7.20452C14.838 7.13628 14.8914 7.08293 14.9596 7.06928L16.3194 6.79732ZM13.2674 7.34078L12.837 7.42687C12.1749 7.55928 11.6574 8.07677 11.525 8.7388L11.3319 9.70447L10.32 10.7164C9.89367 11.1427 9.74221 11.7491 9.87871 12.3027C10.1774 13.5141 9.85237 14.841 8.91048 15.7829C7.47661 17.2167 5.15185 17.2167 3.71798 15.7829C2.28411 14.349 2.28411 12.0242 3.71798 10.5904C4.65985 9.64848 5.98664 9.32347 7.19804 9.62212C7.7517 9.75861 8.35806 9.60713 8.78439 9.18081L14.8587 3.10645L16.3943 3.10645L16.3943 4.64205L15.6311 5.40528L14.6654 5.59841C14.0034 5.73082 13.4859 6.24832 13.3535 6.91034L13.2674 7.34078Z" fill="#161C1E"/>
<path fill-rule="evenodd" clip-rule="evenodd" d="M6.04895 14.0489C6.21971 13.8781 6.21971 13.6012 6.04895 13.4305C5.87819 13.2597 5.60132 13.2597 5.43056 13.4305C5.2598 13.6012 5.2598 13.8781 5.43056 14.0489C5.60132 14.2196 5.87819 14.2196 6.04895 14.0489ZM7.10961 15.1095C7.86616 14.353 7.86616 13.1264 7.10961 12.3698C6.35306 11.6133 5.12645 11.6133 4.3699 12.3698C3.61335 13.1264 3.61335 14.353 4.3699 15.1095C5.12645 15.8661 6.35306 15.8661 7.10961 15.1095Z" fill="#161C1E"/>
</svg>
