<svg width="20" height="20" viewBox="0 0 20 20" fill="none" xmlns="http://www.w3.org/2000/svg">
<path d="M2.75 3.693C2.75 3.58879 2.81464 3.49551 2.91222 3.45892L9.91222 0.833918C9.96882 0.812695 10.0312 0.812695 10.0878 0.833918L17.0878 3.45892C17.1854 3.49551 17.25 3.58879 17.25 3.693V11.8613C17.25 13.0254 16.7772 14.1295 15.9278 14.8943C15.1549 15.5902 14.2527 16.373 13.55 16.9C12.455 17.7213 10.8911 18.6367 10.1049 19.0824C10.0388 19.1198 9.96117 19.1198 9.89507 19.0824C9.10888 18.6367 7.54501 17.7213 6.45 16.9C5.74733 16.373 4.84509 15.5902 4.07221 14.8943C3.22284 14.1295 2.75 13.0254 2.75 11.8613V3.693Z" stroke="#161C1E" stroke-width="1.5"/>
<path d="M6 9.5L9 12L14 7" stroke="#161C1E" stroke-width="1.5"/>
</svg>
